PathFileType	4	(X/Y/Z)	C:/Users/beibeiliu/ov580/test_trc\sequence.40_training_dense_left.trc
DataRate	CameraRate	NumFrames	NumMarkers	Units	OrigDataRate	OrigDataStartFrame	OrigNumFrames
120	120	16	19	mm	120	1	75
Frame#	Time	ThumbCMC			ThumbMCP			ThumbIP			ThumbTip			IndexMCP			IndexPIP			IndexTip			MiddleMCP			MiddlePIP			MiddleTip			RingMCP			RingPIP			RingTip			PinkyMCP			PinkyPIP			PinkyTip			BackHand1			BackHand2			BackHand3	
		X0	Y0	Z0	X1	Y1	Z1	X2	Y2	Z2	X3	Y3	Z3	X4	Y4	Z4	X5	Y5	Z5	X6	Y6	Z6	X7	Y7	Z7	X8	Y8	Z8	X9	Y9	Z9	X10	Y10	Z10	X11	Y11	Z11	X12	Y12	Z12	X13	Y13	Z13	X14	Y14	Z14	X15	Y15	Z15	X16	Y16	Z16	X17	Y17	Z17	X18	Y18	Z18	
0	0	-181.968	55.5891	128.518	-159.514	80.4215	121.78	-145.563	99.9994	105.506	-126.058	109.794	88.3729	-144.917	61.0518	65.8507	-129.152	84.5322	61.6907	-108.569	109.061	73.1416	-124.703	57.1771	74.8298	-113.791	79.7665	95.0826	-135.723	64.8183	121.287	-112.094	53.0413	90.2128	-112.634	68.9551	113.699	-137.508	49.3621	128.062	-102.079	40.3602	105.225	-109.475	54.6594	127.002	-138.044	39.5132	134.51	-143.051	5.64113	101.933	-161.185	-5.67654	132.642	-176.487	17.6236	109.02	
1	0.00833333	-190.653	39.4219	123.93	-175.289	66.4036	112.239	-162.972	80.6225	94.5813	-150.765	95.9747	75.6397	-159.667	42.0695	58.9833	-145.703	67.4116	49.5382	-129.325	92.3206	52.0589	-138.792	44.6416	67.9391	-131.608	68.0624	83.3555	-150.175	52.1826	114.216	-121.679	38.5063	83.6764	-128.109	60.1699	103.571	-151.201	36.3392	122.126	-115.069	28.7359	97.3449	-124.483	49.1085	120.938	-145.67	30.8377	132.329	-147.742	-8.48895	107.264	-163.539	-16.405	133.056	-182.796	2.36664	109.356	
2	0.0166667	-201.999	24.5212	123.207	-189.326	49.2715	108.439	-181.243	67.649	82.6006	-174.8	77.2735	68.5694	-179.308	27.0204	51.6634	-167.036	44.6536	41.6543	-157.79	68.5645	33.2974	-153.49	23.8691	62.875	-149.199	52.9253	75.2583	-166.007	41.4435	105.761	-141.143	23.2769	74.8666	-145.197	47.812	96.7797	-161.268	26.4592	116.86	-125.73	18.5005	88.9122	-135.048	39.8212	109.665	-155.197	21.6275	123.428	-155.404	-21.9568	106.374	-169.232	-25.5127	134.538	-190.998	-13.979	113.476	
3	0.025	-215.174	17.204	116.752	-201.041	38.6623	101.25	-197.652	53.8667	78.3696	-195.58	65.3064	62.677	-196.043	10.6276	49.5695	-191.132	31.8622	33.1364	-176.789	47.1131	23.5829	-173.705	9.76849	58.1265	-166.688	41.1685	68.7396	-178.327	29.995	100.774	-157.475	13.4608	67.4943	-158.703	38.0635	86.8844	-173.82	24.4206	109.701	-145.15	5.98973	81.8375	-151.495	32.3803	96.5225	-168.457	16.6604	119.538	-168.537	-29.3212	102.693	-175.267	-33.8223	134.531	-203.694	-23.2583	111.626	
4	0.0333333	-223.679	17.1685	121.204	-212.602	40.5903	97.4554	-211.799	56.1846	76.9149	-210.037	67.2101	57.9257	-218.599	7.70763	50.7359	-211.169	24.4926	33.6827	-202.02	43.1593	17.5374	-192.481	11.9451	51.0451	-185.064	39.5263	65.1311	-192.104	31.7392	96.0947	-170.172	8.92433	64.0809	-173.796	36.4188	80.9021	-185.46	19.614	107.194	-156.084	5.53146	75.6726	-164.314	29.1021	88.3647	-179.503	16.0245	115.277	-184.235	-32.1069	101.14	-193.599	-31.9488	130.99	-217.06	-21.3471	112.601	
5	0.0416667	-230.226	29.3154	117.953	-216.444	49.9188	98.6174	-213.179	64.3246	73.8607	-211.585	77.9467	56.9854	-234.164	20.5741	52.7174	-220.61	37.5395	31.7022	-213.64	52.9073	17.4546	-203.856	18.2699	50.9772	-193.199	45.1915	60.0756	-197.364	35.9036	94.8169	-184.197	13.4128	60.2758	-179.122	39.41	78.8075	-190.77	26.7465	104.692	-172.817	7.16032	69.8415	-171.828	31.2937	83.5146	-185.994	19.0411	111.06	-204.85	-24.0254	101.449	-205.866	-25.0658	130.921	-234.159	-8.25439	114.018	
6	0.05	-230.117	46.2167	120.077	-211.274	63.7054	98.8349	-203.918	74.0136	79.3046	-200.912	85.4104	59.0734	-236.204	39.9194	50.1817	-228.548	54.9048	36.9506	-213.086	66.3381	18.5323	-212.04	30.2504	49.6002	-195.412	52.5514	56.531	-199.793	44.9385	95.0473	-199.471	21.2286	58.4854	-181.78	42.6912	73.5948	-198.485	33.1817	104.35	-182.018	10.3408	65.8127	-175.822	33.0866	85.9699	-191.951	22.7774	109.801	-220.206	-10.7526	99.3271	-218.53	-16.6787	129.737	-242.472	5.78222	115.92	
7	0.0583333	-218.511	59.7297	127.382	-195.986	70.641	103.265	-187.891	84.1423	76.909	-181.129	93.8104	60.6993	-234.146	63.0142	54.6541	-218.277	77.0195	37.1705	-203.604	80.2973	20.5673	-215.273	46.8062	50.5492	-189.483	58.3303	56.7276	-196.549	53.0426	95.4653	-204.372	32.6149	56.2027	-178.065	41.9053	71.7988	-191.451	36.8727	101.248	-191.259	16.9437	60.6956	-176.444	31.3803	79.3183	-195.7	25.6497	108.029	-230.771	0.747946	96.9924	-230.527	-2.59443	125.97	-247.437	30.1968	117.711	
8	0.0666667	-199.45	65.2884	125.823	-177.117	68.5652	100.412	-167.563	76.7144	78.304	-158.524	86.9185	56.2981	-219.521	79.9159	60.429	-199.739	87.6425	38.8343	-181.531	92.7898	21.3051	-210.47	58.6462	53.5714	-176.859	56.078	58.2796	-182.994	51.1557	92.8685	-200.852	39.6854	54.0408	-173.449	39.2176	68.3435	-187.751	39.6986	100.562	-199.855	18.7435	59.0275	-175.623	27.3214	74.8408	-190.73	26.4049	106.158	-235.734	21.3016	96.1456	-233.846	11.179	128.189	-236.01	47.816	120.915	
9	0.075	-177.319	59.3284	130.007	-151.521	59.471	103.869	-139.47	65.3359	83.0421	-134.085	66.806	60.8667	-189.871	87.092	64.7106	-175.394	85.516	45.2394	-157.232	83.3987	24.3035	-189.227	64.3323	55.8011	-160.417	51.7957	58.9721	-166.635	43.8846	93.5552	-188.865	45.1822	56.3017	-164.815	29.3131	67.1265	-176.321	32.5095	100.451	-198.417	26.2307	62.2986	-171.18	19.1973	77.2551	-183.834	24.6022	105.102	-229.572	34.251	99.1341	-229.663	26.6988	127.293	-216.457	60.1851	126.253	
10	0.0833333	-150.008	47.6709	133.156	-130.046	36.8114	108.964	-116.538	37.5397	84.9493	-107.108	38.8469	62.5964	-153.267	75.3221	67.7044	-136.681	70.9699	49.8576	-122.75	59.0372	26.8814	-160.799	54.0105	58.6912	-141.536	32.3163	62.3505	-152.159	24.9937	96.8511	-173.902	33.6561	59.8911	-153.517	14.1413	71.7631	-163.467	22.6073	105.888	-185.092	24.5721	66.0031	-163.022	7.40638	80.2749	-173.501	17.2394	108.187	-210.027	44.6634	103.671	-211.812	37.1555	130.478	-189.126	61.9445	129.043	
11	0.0916667	-130.959	25.4918	141.593	-109.379	8.57795	119.366	-96.068	4.51477	95.8245	-91.9219	2.48128	73.0492	-115.746	51.5065	74.0081	-102.157	38.7101	55.0351	-95.8009	25.1057	37.2297	-134.345	36.0466	66.6658	-125.62	4.56669	70.1948	-136.624	7.81038	107.151	-152.748	22.5296	67.4397	-139.864	-2.47829	79.6856	-150.428	6.13383	111.314	-162.195	14.3052	71.0961	-153.502	-5.28069	86.3173	-163.417	9.30501	116.684	-182.511	48.3743	106.503	-191.141	41.1964	136.24	-153.684	54.2726	132.941	
12	0.1	-114.378	13.8878	145.812	-102.331	-8.63436	127.089	-83.3477	-19.5684	108.435	-73.9257	-24.3929	87.1579	-89.9971	29.0049	81.7593	-77.9895	13.5203	66.661	-73.8793	-2.15998	49.8891	-110.415	16.6069	73.871	-111.228	-14.6194	81.4628	-123.945	-9.28244	113.349	-134.168	6.74353	73.2045	-126.613	-17.6549	92.9186	-137.327	-1.70632	119.808	-150.654	3.9106	77.7786	-144.07	-17.6257	95.9811	-148.772	3.64112	124.454	-154.542	41.4313	110.23	-169.006	39.0921	142.324	-134.159	43.6478	139.149	
13	0.108333	-108.402	12.7957	155.149	-90.2041	-10.7997	136.682	-72.7438	-21.1843	118.703	-61.5681	-29.8787	100.4	-85.8081	25.6865	87.198	-70.5466	10.5328	73.6669	-59.6449	-11.0877	56.3866	-100.874	7.85114	77.6205	-98.0991	-20.3455	91.1855	-111.756	-12.4136	121.693	-119.972	-2.62861	80.0181	-117.521	-23.9405	98.7568	-127.078	-6.04485	126.1	-134.546	-6.19118	84.0389	-133.298	-22.0681	109.202	-138.766	0.582026	129.172	-148.188	35.5349	109.856	-162.709	38.4482	139.096	-129.952	45.0576	141.397	
14	0.116667	-110.486	28.1056	156.152	-89.7622	6.49111	145.573	-66.7127	-1.8561	131.826	-51.8986	-8.58651	115.555	-87.4197	33.5479	85.5297	-69.7796	20.9918	75.2542	-52.7405	3.50503	63.5672	-99.2083	14.1278	83.0629	-87.3007	-11.1475	98.6757	-109.23	0.267569	129.47	-113.729	-2.66198	85.4199	-106.348	-19.6015	109.892	-120.626	-1.27317	131.129	-128.925	-14.1268	88.4666	-122.009	-23.3389	113.858	-137.49	3.22366	134.562	-158.103	28.5518	107.085	-168.169	30.9422	135.009	-140.092	47.5731	133.633	
15	0.125	-122.622	45.1033	153.224	-93.7803	31.5309	144.98	-66.5737	32.5472	133.929	-49.9305	29.5112	127.144	-98.3962	50.7368	84.9827	-73.957	45.1819	76.5629	-51.3202	28.9102	64.8652	-103.075	23.6223	83.2907	-81.5887	9.885	107.297	-105.195	15.2421	132.477	-110.191	4.70323	88.5026	-96.417	-2.71411	114.733	-120.934	9.54876	134.365	-119.557	-10.8201	93.6347	-110.058	-9.99171	120.762	-133.026	9.43912	135.671	-159.287	21.6277	103.436	-176.547	22.8952	131.402	-154.326	51.3573	125.151	
